<svg width="22" height="25" viewBox="0 0 22 25" fill="none" xmlns="http://www.w3.org/2000/svg">
<path d="M21.465 10.2019C19.326 10.2019 17.343 9.51794 15.725 8.35594V16.7409C15.725 20.9289 12.318 24.3349 8.131 24.3349C6.513 24.3349 5.012 23.8249 3.779 22.9589C1.821 21.5839 0.536999 19.3099 0.536999 16.7409C0.536999 12.5529 3.944 9.14594 8.132 9.14594C8.48 9.14594 8.82 9.17494 9.155 9.21994V10.1969V13.4319C8.831 13.3309 8.489 13.2719 8.132 13.2719C6.22 13.2719 4.664 14.8279 4.664 16.7409C4.664 18.0729 5.42 19.2299 6.524 19.8109C7.005 20.0639 7.552 20.2089 8.133 20.2089C10.001 20.2089 11.525 18.7229 11.595 16.8709L11.598 0.335938H15.724C15.724 0.693938 15.759 1.04294 15.821 1.38294C16.112 2.95494 17.045 4.30394 18.338 5.14694C19.238 5.73394 20.312 6.07694 21.464 6.07694L21.465 10.2019Z" fill="#FFE9DC"/>
</svg>
