<svg width="24" height="21" viewBox="0 0 24 21" fill="none" xmlns="http://www.w3.org/2000/svg">
<path d="M21.543 5.44003C21.557 5.65103 21.557 5.86303 21.557 6.07603C21.557 12.583 16.603 20.086 7.547 20.086V20.082C4.872 20.086 2.252 19.32 -3.57628e-07 17.875C0.389 17.922 0.78 17.945 1.172 17.946C3.39 17.948 5.544 17.204 7.287 15.834C5.18 15.794 3.332 14.42 2.687 12.414C3.425 12.556 4.185 12.527 4.91 12.33C2.612 11.866 0.96 9.84703 0.96 7.50303C0.96 7.48203 0.96 7.46103 0.96 7.44103C1.645 7.82303 2.411 8.03403 3.195 8.05703C1.031 6.61203 0.363 3.73403 1.67 1.48403C4.17 4.56003 7.859 6.43003 11.818 6.62903C11.421 4.91903 11.964 3.12703 13.242 1.92403C15.225 0.0590341 18.344 0.155034 20.209 2.13803C21.312 1.92103 22.369 1.51603 23.336 0.943034C22.968 2.08303 22.199 3.05103 21.171 3.66703C22.148 3.55003 23.101 3.28903 24 2.89103C23.339 3.88003 22.507 4.74303 21.543 5.44003Z" fill="#FFE9DC"/>
</svg>
